<?xml version="1.0" encoding="utf-8"?>
<!-- Svg Vector Icons : http://www.onlinewebfonts.com/icon -->
<!DOCTYPE svg PUBLIC "-//W3C//DTD SVG 1.1//EN" "http://www.w3.org/Graphics/SVG/1.1/DTD/svg11.dtd">
<svg version="1.1" xmlns="http://www.w3.org/2000/svg" xmlns:xlink="http://www.w3.org/1999/xlink" x="0px" y="0px" viewBox="0 0 1000 1000" enable-background="new 0 0 1000 1000" xml:space="preserve">
<metadata> Svg Vector Icons : http://www.onlinewebfonts.com/icon </metadata>
<g><g><g><path d="M930.6,521.3c0.9-140.9-104.5-209.6-197.6-270.2l-1.1-0.7c-20.3-13.3-39.5-25.8-56.4-38.5C594.3,151,523.3,55.9,515,21.4c-1.7-6.7-7.5-11.2-15.2-11.4c-5.5,0.4-11.8,4-13.7,10.9c-9.5,34.2-71.5,126.7-161.1,188.8c-14.3,10-29.7,19.7-47.5,31c-93.1,59-209,132.4-208.1,278.8c1.2,181.2,111.3,263.7,213.2,263.7c66.3,0,130.7-32.6,178.3-89.9c-20.5,98.2-83.1,220.3-261,267.3c-7.2,1.9-11.9,9-11,16.4c1,7.4,7.4,13,14.9,13h592.7c8.3,0,14.9-6.7,14.9-14.9c0-7.2-5.4-13.8-11.5-14.5c-7.8-2.4-188.6-58.8-250.9-262.3c47.1,49.8,109.3,78.1,172.2,78.2C824.7,776.4,929.4,697.5,930.6,521.3z"/></g></g><g></g><g></g><g></g><g></g><g></g><g></g><g></g><g></g><g></g><g></g><g></g><g></g><g></g><g></g><g></g></g>
</svg>